<svg version="1.1" xmlns="http://www.w3.org/2000/svg" viewBox="0 0 111.90166222050982 248.56159248432698">
  <!-- svg-source:excalidraw -->
  <defs>
    <style>
      @font-face {
        font-family: "Virgil";
        src: url("https://excalidraw.com/FG_Virgil.woff2");
      }
      @font-face {
        font-family: "Cascadia";
        src: url("https://excalidraw.com/Cascadia.woff2");
      }
    </style>
  </defs>
  <rect x="0" y="0" width="111.90166222050982" height="248.56159248432698" fill="#ffffff"></rect><g transform="translate(42.304297108210335 10) rotate(0 18.495627176290895 20.163500221258715)"><path d="M12.29253779999335 0.17588291135960432 C15.820394397086808 -1.14338001542661, 21.741369898113614 0.25097274238023815, 25.653262887195737 2.0534512933682016 C29.56515587627786 3.855929844356165, 33.88489863372795 7.2774734111217825, 35.76389573448608 10.990754217287385 C37.642892835244204 14.704035023452988, 37.935056922580685 20.055734468484303, 36.927245491744515 24.333136130361822 C35.919434060908344 28.61053779223934, 32.870283756570906 33.865728591562934, 29.717027149469033 36.65516418855249 C26.563770542367163 39.444599785542046, 21.93431265900892 41.499595099065736, 18.00770584913329 41.06974971229917 C14.08109903925766 40.639904325532605, 8.984042056365489 37.127703270332994, 6.157386290215252 34.076091867953096 C3.330730524065014 31.0244804655732, 1.7040017483567582 26.78414598873336, 1.0477712522318647 22.760081298019784 C0.39154075610697114 18.736016607306208, -0.6689879256427926 13.581428053243549, 2.22000331346589 9.931703723671644 C5.108994552574572 6.281979394099739, 14.957406067695336 2.422718473029968, 18.38171868688396 0.8617353205883553 C21.806031306072583 -0.6992478318532571, 22.703491914840434 0.5303520897274261, 22.76587902859763 0.5658048090219694 M22.702332836851276 0.5080568244385262 C26.300689541426 1.1717836615560673, 30.231877047652937 3.6037422601066442, 32.62561758335265 7.218734761208195 C35.01935811905236 10.833727262309745, 37.191381119561214 17.73540572216098, 37.06477605104955 22.19801183104783 C36.93817098253788 26.660617939934678, 34.8997678898163 30.861444837530428, 31.86598717228268 33.9943714145293 C28.83220645474906 37.12729799152817, 22.8130173776128 40.46271776166599, 18.862091745847827 40.99557129304105 C14.911166114082857 41.52842482441611, 11.121385317034676 39.61235588028421, 8.160433381692858 37.19149260277966 C5.19948144635104 34.77062932527511, 1.9515473427695031 30.85953272253982, 1.0963801337969201 26.47039162801374 C0.2412129248243371 22.08125053348766, 1.5067499520363208 15.09149717669467, 3.02943012785736 10.856646035623164 C4.552110303678399 6.621794894551659, 6.968501169017701 2.9530494223065284, 10.232461188723155 1.0612847815847068 C13.49642120842861 -0.8304798591371145, 20.365522856698018 -0.42705064267930126, 22.613190246090088 -0.4939418087077634 C24.86085763548216 -0.5608329747362255, 23.808220067038924 0.35902649354782906, 23.71846552507557 0.6599377854139341" stroke="#000000" stroke-width="1" fill="none"></path></g><g><g transform="translate(45.67887292697742 167.2895177980795) rotate(0 1.9998753592305434 -27.476836677500586)"><path d="M0.8967398397624493 0.12880517318844786 C1.1133733181167655 -8.979070562325907, 1.6987876703386564 -46.13291196625924, 1.8232862915152381 -55.08247852818961 M-0.09161047370173048 -0.8491760562267154 C0.4572168021813293 -9.750251281751808, 3.4094448793382752 -44.678776345655905, 4.091361192162863 -53.758949366667444" stroke="#000000" stroke-width="1" fill="none"></path></g></g><g><g transform="translate(61.60077061226741 111.12367042637436) rotate(0 0.8169092133329059 37.18653944864681)"><path d="M0.255336331576109 -1.0599384896457196 C0.2742944916016352 11.534711600293095, 0.38511093354547576 62.61641066247908, 0.5643024004557675 75.43301738693938 M-1.0697508236858995 0.997989857951179 C-0.7336853262451548 13.230924317895125, 2.4595532657741215 61.35222967143481, 2.703569250351707 73.503128713822" stroke="#000000" stroke-width="1" fill="none"></path></g></g><g><g transform="translate(11.257526454636832 65.58290620501487) rotate(0 15.910950777662606 -0.4631148823835076)"><path d="M0.1322047702968121 0.0564669974148273 C5.2142032527401 -0.29842339265651047, 25.67447102341749 -1.1274106645736361, 30.725296562745545 -1.0314381701234896 M-1.2575264546368272 -0.9594917742814869 C4.196399311510742 -0.6624704750117563, 27.399446287927628 0.15358250438575805, 33.07942800996204 0.10765041734872588" stroke="#000000" stroke-width="1" fill="none"></path></g></g><g><g transform="translate(68.18119757016177 65.90703043744327) rotate(0 16.931770724571436 0.3065095114109795)"><path d="M1.0506331332027912 0.7119728319346905 C6.701087213772085 0.564489965518124, 28.12320041963233 -0.27457406183179656, 33.720464650348106 -0.34929920730109737 M0.14307679879479118 0.040154623361304376 C5.620007228896689 0.012540045282922296, 26.914308001216114 0.6894965689588692, 32.583718604428974 0.9623182301230409" stroke="#000000" stroke-width="1" fill="none"></path></g></g><g transform="translate(24.571185428075864 131.22565498432698) rotate(0 33.521833297664784 53.66796875)"><path d="M40.72751453706508 2.100554211249822 C46.53433779794393 3.301685174484862, 53.25206604738976 8.991971110801629, 57.59973491915708 16.067325115205477 C61.9474037909244 23.142679119609326, 65.85060787318426 34.69870074249949, 66.81352776766897 44.55267823767291 C67.77644766215369 54.406655732846325, 65.84958409978572 66.23444996682375, 63.377254286065366 75.19119008624597 C60.904924472345016 84.14793020566819, 57.04019241713326 92.98575353705792, 51.97954888534686 98.29311895420628 C46.918905353560454 103.60048437135464, 39.43775533260867 107.28322977135473, 33.013393095346935 107.03538258913613 C26.589030858085202 106.78753540691754, 18.44622353458599 102.51071612502126, 13.43337546177646 96.80603586089472 C8.420527388966931 91.10135559676819, 5.1446576722690125 82.00684478123765, 2.936304658489764 72.8073010043769 C0.7279516447105148 63.60775722751614, -0.9552228665183744 51.23784588870709, 0.18325737910096507 41.60877319973018 C1.3217376247203045 31.97970051075327, 5.067881397840612 21.748276632221415, 9.7671861322058 15.03286487051541 C14.46649086657099 8.317453108809406, 22.57293588778888 3.4025274927116542, 28.379085785292098 1.3163026294941602 C34.185235682795316 -0.7699222337233338, 41.79180206643119 1.9955148210517089, 44.604085517225116 2.515515691210446 C47.41636896801904 3.035516561369183, 45.424587414804144 3.6295906597503595, 45.25278649005567 4.436307850446582 M32.01223595926656 0.7372237467781275 C37.77828214561584 -0.39863805497138327, 44.330242402104076 3.3320425389012716, 49.6656635933273 8.30393866467022 C55.00108478455053 13.275834790439168, 60.9748745412528 21.91650020191365, 64.02476310660592 30.568600501391817 C67.07465167195903 39.220700800869984, 69.0112215766533 50.53564200521917, 67.964994985446 60.216540461539225 C66.9187683942387 69.89743891785929, 61.84144458831831 80.8624682773692, 57.74740355936211 88.65399123931218 C53.653362530405914 96.44551420125515, 49.38627724772094 104.47520393848563, 43.40074881170881 106.96567823319702 C37.41522037569668 109.45615252790842, 28.069323225077927 106.81156088305828, 21.8342329432893 103.59683700758052 C15.599142661500675 100.38211313210276, 9.684311534227154 95.54964879140594, 5.990207120977061 87.67733498033044 C2.2961027077269676 79.80502116925494, -0.29420834530262674 66.60304838924026, -0.3303935362112611 56.36295414112752 C-0.3665787271198955 46.122859893014784, 2.79121595536822 34.55276615996729, 5.773095975525255 26.236769491654027 C8.75497599568229 17.920772823340762, 13.239671465155842 10.596220608172999, 17.560886584730948 6.4669741312479445 C21.882101704306052 2.337727654322891, 29.258568247153065 2.275135004738736, 31.70038669297589 1.4612906301037043 C34.142205138798715 0.6474462554686724, 32.44393316936064 0.830444275187137, 32.211797259667904 1.5839078834377531" stroke="#000000" stroke-width="1" fill="none"></path></g><g transform="translate(46.12442790927355 53.50299873432698) rotate(0 10.060546875 33.17578125)"><path d="M12.568701635546581 2.0946507404243597 C14.694300906194428 3.3153834673970346, 17.035503011429153 8.725363427472974, 18.32926673276654 14.257073602107155 C19.62303045410393 19.788783776741337, 20.632742469385462 28.280697888921814, 20.331283963570915 35.284911788229444 C20.029825457756367 42.28912568753707, 17.977642804371932 51.15116182689458, 16.52051569787926 56.28235699795293 C15.063388591386593 61.41355216901128, 13.568603468889865 65.39034163037437, 11.588521324614899 66.07208281457953 C9.608439180339932 66.7538239987847, 6.548780124721152 64.29166895181524, 4.640022832229461 60.37280410318396 C2.7312655397377705 56.45393925455268, 0.7837933063052888 49.44894605424531, 0.13597756966475316 42.55889372279183 C-0.5118381669757824 35.66884139133835, -0.364189110759612 25.48837531929926, 0.7531284123862481 19.03249011446305 C1.8704459355321081 12.576604909626845, 4.674957548779744 6.784908926131113, 6.839882708539913 3.8235824937745804 C9.004807868300082 0.8622560614180479, 12.409257023469012 1.2168333119382992, 13.74267937094726 1.2645315203238567 C15.076101718425507 1.3122297287094142, 14.93501717921574 3.2961789751794157, 14.840416793409402 4.109771744087926 M8.256692241632658 0.9893368014055746 C10.214044882197244 -0.8692409815827518, 13.510932608058946 1.079405306946899, 15.562340770966777 4.203357033597403 C17.61374893387461 7.327308760247906, 20.02925898633327 13.513433003090125, 20.56514121907965 19.733047161308598 C21.101023451826027 25.95266131952707, 19.42673479551123 35.01145362588265, 18.777634167445047 41.521041982908244 C18.128533539378864 48.030630339933836, 18.326019404762842 54.46724037881885, 16.670537450682545 58.79057730346213 C15.015055496602248 63.11391422810541, 11.255478430315257 67.80871687001738, 8.844742442963259 67.46106353076792 C6.434006455611261 67.11341019151845, 3.5895976468353243 61.65965223168288, 2.2061215265705583 56.70465726796536 C0.8226454063057922 51.74966230424784, 0.7128531487214075 44.65104154058187, 0.5438857213746626 37.73109374846282 C0.37491829402791776 30.81114595634376, 0.04684998457018574 21.286028730355365, 1.1923169624900893 15.184970515251024 C2.337783940409993 9.083912300146682, 6.27884764483687 3.574195615615609, 7.416687588894084 1.1247444578367762 C8.554527532951298 -1.3247066999420567, 7.898772400879774 0.1617686095299007, 8.019356626833373 0.4882635685780272" stroke="#000000" stroke-width="1" fill="none"></path></g><g transform="translate(49.43302165927355 122.00690498432698) rotate(0 8.19140625 4.5859375)"><path d="M0.8625577751707165 1.2466777656765766 C4.846013631694948 0.0010746086919971726, 6.171646514192978 -0.045292831168480915, 17.89959619377477 -1.3999427976945293 M0.41954071559375705 -0.7829300737394075 C4.793623012393798 0.2726701318816048, 8.394394174766054 0.9157222022133642, 16.826737434443924 -0.01823945703581553 M15.726122732579817 0.7626118607091489 C16.202615364613877 2.5070193251071045, 16.060771085201697 3.4197025481291363, 16.703521775294206 9.838677726892643 M16.220373442965496 -0.05978461227932713 C15.961047423754929 2.501528268160474, 16.526306541807127 4.004158100411589, 16.368704784625145 8.731471140695797 M16.053595527556894 8.867523199094288 C12.79008670478069 8.457448691268077, 9.135590597522963 10.82485004057977, 1.5793867732092612 8.694554584294387 M16.71254810397876 9.936870909210851 C11.67241379265833 9.816786018228454, 7.242168086366288 8.234877488720526, 0.7789046575118842 9.123910256180537 M-0.07591391398746061 9.812582911291978 C0.07663485678407594 6.301292375754567, -0.2058573882977363 4.574702731592699, -0.8066709264850945 -0.534167361984146 M0.44975393164058936 9.415784222878578 C-0.13585662813042299 7.537736071539987, -0.24831539545324638 5.022371468234635, -0.018085350598266825 0.16454127106262612" stroke="#000000" stroke-width="1" fill="none"></path></g><g transform="translate(51.79630290927355 183.17877998432698) rotate(0 5.146484375 3.3984375)"><path d="M4.015914173903069 -0.21004158164595887 C4.808150206642286 -0.4713869427288748, 5.855129081092514 -0.5128772874255361, 6.774462232016294 -0.2370103101824661 C7.693795382940074 0.03885666706060387, 8.863092401388046 0.7937034063586831, 9.53191307944575 1.445160281812461 C10.200733757503455 2.096617157266239, 10.916102213394877 2.785331329872473, 10.787386300362517 3.6717309425402007 C10.658670387330156 4.558130555207929, 9.586104213277096 6.089450138274667, 8.759617601251591 6.763557957818827 C7.933130989226087 7.437665777362988, 6.878770063654383 7.955728287499488, 5.828466628209492 7.716377859805167 C4.778163192764601 7.477027432110846, 3.2988687607899774 6.104499615810893, 2.457796988582244 5.327455391652903 C1.616725216374511 4.550411167494913, 1.1589872188500263 3.688003065803747, 0.7820359949630928 3.0541125148572243 C0.4050847710761593 2.4202219639107017, -0.30703435979346516 1.9199192893744572, 0.19608964526064288 1.524112085973767 C0.6992136503147509 1.1283048825730766, 3.197050176435886 0.8740787977404955, 3.800780025287741 0.679269294453082 C4.404509874139596 0.4844597911656686, 3.7187870496348854 0.31671632718292075, 3.8184687383717737 0.35525506624928616 M7.291097625775983 -1.0417431776544581 C8.031485935233887 -0.6662928721899097, 7.741232269816229 0.9232361905330789, 8.008874657851063 1.571977715116089 C8.276517045885896 2.220719239699099, 8.826890713858099 2.1836056928311405, 8.896951953984987 2.850705969843602 C8.967013194111875 3.5178062468560634, 9.18072461245432 4.672046994875283, 8.42924209861239 5.574579377190858 C7.677759584770459 6.477111759506433, 5.198694260730709 8.175353490899628, 4.3880568709334025 8.265900263737048 C3.577419481136096 8.356447036574469, 4.1144587890459245 6.882909376145077, 3.5654177598285526 6.117860014215385 C3.01637673061118 5.352810652285693, 1.399021235619653 4.16686526099885, 1.0938106956291689 3.675604092158897 C0.7886001556386848 3.1843429233189444, 1.5049941555266648 3.5213634023730322, 1.7341545198856485 3.1702930011756694 C1.9633148842446322 2.8192225999783065, 1.8237245089657037 2.174627519691355, 2.468772881783071 1.56918168497472 C3.1138212546004382 0.9637358502580852, 5.107045183097106 -0.24598473518674072, 5.604444756789851 -0.46238200712413935 C6.101844330482597 -0.678779279061538, 5.266060025822896 0.01849084986509736, 5.453170323939545 0.27079805335032825" stroke="#000000" stroke-width="1" fill="none"></path></g><g><g transform="translate(64.89395915927355 186.01862373432698) rotate(0 12.16737316772344 -10.844664572924358)"><path d="M0.7093474142253398 0.10903207138180737 C4.7883715463181336 -3.6220355940361815, 19.914290896306436 -18.388883975396553, 23.625398921221496 -21.798361217230557" stroke="#000000" stroke-width="1.5" fill="none" stroke-dasharray="3 6"></path></g></g><g><g transform="translate(39.80486340214486 203.79608137625826) rotate(0 5.627537834257794 -5.034874415830728)"><path d="M0.8484400637447835 -0.9496829755604267 C2.609106914570248 -2.438017404720502, 8.708142978798925 -7.619723522888208, 10.406635604770873 -9.120065856101018" stroke="#000000" stroke-width="1.5" fill="none" stroke-dasharray="3 6"></path></g></g><g><g transform="translate(76.81346741454661 212.6808397437967) rotate(0 -8.740261589735724 -13.691967244953844)"><path d="M0.5581801302731038 -0.886931587010622 C-2.4109647663930938 -5.321828265160633, -14.675743563224813 -22.22548894569433, -18.038703309744527 -26.497002902897076" stroke="#000000" stroke-width="1.5" fill="none" stroke-dasharray="3 6"></path></g></g><g><g transform="translate(55.02481853427355 179.59088935932698) rotate(0 -10.81989974474999 -7.694471729919314)"><path d="M0.8547975428402423 1.1321904413402082 C-2.7131479360861777 -1.5353204497446595, -18.917309359810353 -13.696595574791223, -22.494597032340288 -16.521133901178825" stroke="#000000" stroke-width="1.5" fill="none" stroke-dasharray="3 6"></path></g></g></svg>